<svg id="Capa_1" enable-background="new 0 0 364.6 364.6" height="512" viewBox="0 0 364.6 364.6" width="512" xmlns="http://www.w3.org/2000/svg"><g><g><path d="m120.687 276.19h123.174v52.426h-123.174z" fill="#2f4859"/><path d="m10.759 19.235h343.081c5.942 0 10.759 4.817 10.759 10.759v243.862c0 5.942-4.817 10.759-10.759 10.759h-343.081c-5.941.001-10.759-4.816-10.759-10.759v-243.863c0-5.942 4.817-10.758 10.759-10.758z" fill="#3a556a"/><path d="m21.874 39.636h320.802v202.094h-320.802z" fill="#ebf0f3"/><path d="m69.276 321.664h226.047v23.702h-226.047z" fill="#3a556a"/><g fill="#d5d6db"><path d="m76.99 63.084h212.954v2.588h-212.954z"/><path d="m76.99 85.313h212.954v2.588h-212.954z"/><path d="m76.99 107.492h212.954v2.588h-212.954z"/><path d="m76.99 129.72h212.954v2.588h-212.954z"/><path d="m76.99 151.899h212.954v2.588h-212.954z"/><path d="m76.99 174.128h212.954v2.588h-212.954z"/><path d="m76.99 196.307h212.954v2.588h-212.954z"/></g><path d="m76.99 218.535h212.954v2.588h-212.954z" fill="#ebf0f3"/><path d="m159.36 127.233c-8.691.003-16.822-4.292-21.721-11.47l-4.111-5.989c-3.535-5.169-9.041-8.657-15.226-9.643-1.242-.2-2.497-.302-3.755-.305-4.966.009-9.792 1.63-13.755 4.62l-28.117 21.315-2.03-2.792 28.168-21.316c4.592-3.358 10.147-5.138 15.835-5.075 1.445-.005 2.889.115 4.314.356 7.13 1.036 13.519 4.964 17.662 10.861l4.111 5.989c4.206 6.295 11.258 10.097 18.829 10.15 4.267-.015 8.448-1.209 12.078-3.451l25.68-15.937c4.139-2.59 8.922-3.962 13.805-3.959 7.855.023 15.294 3.537 20.301 9.592 7.385 8.945 20.293 10.951 30.045 4.669l31.974-20.859 1.878 2.943-31.821 20.707c-4.261 2.762-9.234 4.225-14.312 4.213-7.854-.031-15.291-3.544-20.301-9.592-7.244-8.862-19.913-11.027-29.689-5.075l-25.68 15.937c-4.234 2.692-9.146 4.117-14.162 4.111z" fill="#e56353"/><path d="m91.556 196.409 39.992-44.103c10.58-11.678 25.554-18.411 41.312-18.575h.456c15.617.102 30.497 6.66 41.109 18.118l2.234 2.385c10.014 10.675 23.984 16.752 38.623 16.799 11.581.013 22.84-3.806 32.025-10.861l.456-.356 2.132 2.792-.456.355c-9.791 7.529-21.804 11.599-34.156 11.571-15.601-.048-30.493-6.529-41.16-17.915l-2.234-2.385c-10.006-10.686-23.982-16.764-38.623-16.799h-.406c-14.792.119-28.856 6.433-38.774 17.408l-39.941 44.154z" fill="#44c4a1"/><path d="m167.074 182.706c-6.767.004-13.442-1.579-19.489-4.619l-62.323-31.314 1.574-3.146 62.323 31.365c5.571 2.757 11.7 4.199 17.915 4.213 8.14.038 16.093-2.425 22.788-7.054l37.556-26.188c11.112-7.754 25.201-9.893 38.114-5.786l26.036 8.374-1.065 3.35-26.036-8.425c-3.937-1.258-8.047-1.891-12.18-1.878-8.18.001-16.165 2.497-22.889 7.156l-37.505 26.137c-7.274 5.093-15.94 7.822-24.819 7.815z" fill="#fcd462"/><path d="m158.751 73.589h-6.293v-7.917h-4.669v7.917h-6.293v51.056h6.293v7.918h4.669v-7.918h6.293z" fill="#27a2db"/><path d="m119.469 140.733h-6.292v-7.916h-4.67v7.916h-6.294v51.057h6.294v7.918h4.67v-7.918h6.292z" fill="#27a2db"/><path d="m218.384 112.16h-6.293v-6.09h-4.669v6.09h-6.293v39.535h6.293v6.091h4.669v-6.091h6.293z" fill="#27a2db"/><path d="m255.687 166.516h-6.242v-6.091h-4.72v6.091h-6.243v39.484h6.243v6.141h4.72v-6.141h6.242z" fill="#27a2db"/><path d="m295.324 218.535h-232.697v-164.029h4.467v159.514h228.23z" fill="#3a556a"/></g></g></svg>