<svg id="Capa_1" enable-background="new 0 0 511.023 511.023" height="512" viewBox="0 0 511.023 511.023" width="512" xmlns="http://www.w3.org/2000/svg"><g><g><g><path d="m28.017 494.383c-15.473 0-28.017-12.543-28.017-28.017v-324.624h176.227l48.823 38.303h197.033v56.034c-140.39 121.029-231.318 258.304-394.066 258.304z" fill="#3d9ae2"/><g><path d="m123.159 236.079-63.997 236.151c-3.543 13.075-15.409 22.153-28.956 22.153h219.985l66.373-144.124 3.627-114.18z" fill="#96c8ef"/><path d="m313.067 236.079-70 258.304h174.081c13.546 0 25.412-9.078 28.956-22.153l63.996-236.151z" fill="#69b1e9"/></g><g><g><path d="m255.498 448.504h-103.662l8.197-30h103.662l17.582 15z" fill="#69b1e9"/></g><g><path d="m359.161 448.504h-103.663l8.132-30h103.728z" fill="#3d9ae2"/></g></g></g></g><path d="m492.621 88.172-23.258 18.065c-7.94-50.692-51.907-89.596-104.793-89.596-58.49 0-106.075 47.585-106.075 106.075h30c0-41.948 34.127-76.075 76.075-76.075 35.231 0 64.936 24.077 73.549 56.638l-19.449-15.107-18.402 23.691 55.378 43.016 55.378-43.016z" fill="#77ca95"/></g></svg>