<svg id="Capa_1" enable-background="new 0 0 512 512" height="512" viewBox="0 0 512 512" width="512" xmlns="http://www.w3.org/2000/svg"><g><circle cx="256" cy="256" fill="#ffc265" r="256"/><path d="m256 484.129c-136.709 0-248.381-107.161-255.619-242.064-.247 4.614-.381 9.259-.381 13.935 0 141.385 114.615 256 256 256s256-114.615 256-256c0-4.676-.134-9.321-.381-13.935-7.238 134.903-118.91 242.064-255.619 242.064z" fill="#ffb541"/><circle cx="256" cy="256" fill="#ffe9c8" r="214.493"/><path d="m256 442.622c-113.778 0-206.848-88.593-214.03-200.557-.296 4.609-.463 9.252-.463 13.935 0 118.461 96.032 214.493 214.493 214.493s214.493-96.032 214.493-214.493c0-4.683-.167-9.327-.463-13.935-7.182 111.964-100.252 200.557-214.03 200.557z" fill="#ffdca7"/><path d="m336.888 352.372h-161.776c-8.552 0-15.484-6.932-15.484-15.484v-161.776c0-8.552 6.932-15.484 15.484-15.484h161.776c8.552 0 15.484 6.932 15.484 15.484v161.776c0 8.551-6.933 15.484-15.484 15.484z" fill="#ff4755"/><path d="m336.888 333.791h-161.776c-8.552 0-15.484-6.932-15.484-15.484v18.581c0 8.552 6.932 15.484 15.484 15.484h161.776c8.552 0 15.484-6.932 15.484-15.484v-18.581c0 8.552-6.933 15.484-15.484 15.484z" fill="#fc2b3a"/></g></svg>